<svg xmlns="http://www.w3.org/2000/svg" viewBox="0 0 430.53 145.86"><defs><style>.cls-1{fill:none;}.cls-2,.cls-3{fill:#3a3a3a;}.cls-3{font-size:18px;font-family:Montserrat-Bold, Montserrat;font-weight:700;}.cls-4{letter-spacing:-0.01em;}.cls-5{letter-spacing:0em;}.cls-6{letter-spacing:-0.01em;}.cls-7{letter-spacing:-0.01em;}.cls-8{letter-spacing:-0.03em;}</style></defs><g id="Layer_2" data-name="Layer 2"><g id="Layer_1-2" data-name="Layer 1"><rect class="cls-1" x="181.05" width="69.66" height="69.66"/><path class="cls-2" d="M237.28,10.88c-10.87,0-14.14-4.34-20.65-4.35h-.06c-6.52,0-9.78,4.35-20.65,4.35a2.18,2.18,0,1,0,0,4.36h17.41V52.31c-8.65.37-15.23,2.14-15.23,4.28,0,2.41,8.28,4.36,18.5,4.36s18.5-2,18.5-4.36c0-2.14-6.58-3.91-15.24-4.28V15.24h17.42a2.18,2.18,0,0,0,0-4.36ZM236.19,37c-6.62,0-12,1-12,2.18,0,3.27,6,6.53,12,6.53s12-3.26,12-6.53C248.16,38,242.8,37,236.19,37Zm0-16.16,7.61,14.44a21.44,21.44,0,0,1,2.75.55L237.15,18a1.13,1.13,0,0,0-1.93,0l-9.38,17.83a20.76,20.76,0,0,1,2.75-.55Zm-39.18,0,7.6,14.44a21.28,21.28,0,0,1,2.76.55L198,18A1.13,1.13,0,0,0,196,18l-9.38,17.83a20.76,20.76,0,0,1,2.75-.55ZM197,37c-6.62,0-12,1-12,2.18,0,3.27,6,6.53,12,6.53s12-3.26,12-6.53C209,38,203.62,37,197,37ZM216.6,13.06a2.18,2.18,0,1,1,2.17-2.18A2.18,2.18,0,0,1,216.6,13.06Z" transform="translate(-0.72)"/><path class="cls-2" d="M7.27,80v25.2a8,8,0,0,1-.5,2.83,7.06,7.06,0,0,1-1.41,2.28,6.64,6.64,0,0,1-2.08,1.53,5.87,5.87,0,0,1-2.56.56v-.32a5.3,5.3,0,0,0,2.14-1.5,7.84,7.84,0,0,0,1.51-2.5,8,8,0,0,0,.56-3V80ZM5,82.6H4.93a2.31,2.31,0,0,0-.7-1.6,2.16,2.16,0,0,0-1.6-.67H2.16V80H5Zm2.12,0V80H10v.36H9.58A2.18,2.18,0,0,0,8,81a2.35,2.35,0,0,0-.7,1.6Z" transform="translate(-0.72)"/><path class="cls-2" d="M25.24,83.07a13.66,13.66,0,0,1,4.73.81,11.74,11.74,0,0,1,3.89,2.32,10.91,10.91,0,0,1,2.61,3.58,11.79,11.79,0,0,1,0,9.18,10.81,10.81,0,0,1-2.61,3.58A11.76,11.76,0,0,1,30,104.87a13.66,13.66,0,0,1-4.73.81,13.53,13.53,0,0,1-4.72-.81,11.88,11.88,0,0,1-3.87-2.33A10.54,10.54,0,0,1,14,99a11.68,11.68,0,0,1,0-9.18,10.64,10.64,0,0,1,2.61-3.58,11.85,11.85,0,0,1,3.87-2.32A13.53,13.53,0,0,1,25.24,83.07Zm0,21.53a9.21,9.21,0,0,0,8.24-4.9,11.92,11.92,0,0,0,0-10.67,9.38,9.38,0,0,0-3.42-3.59,9.59,9.59,0,0,0-9.61,0A9.38,9.38,0,0,0,17,89,11.92,11.92,0,0,0,17,99.7a9.27,9.27,0,0,0,3.42,3.6A9.16,9.16,0,0,0,25.24,104.6Z" transform="translate(-0.72)"/><path class="cls-2" d="M43.24,85.88h-.11a2,2,0,0,0-.63-1.39A2.06,2.06,0,0,0,41,83.93h-.43v-.36h2.63Zm0,17v2.3H40.61v-.36H41a2.05,2.05,0,0,0,2.09-1.94Zm2.19-19.3v21.6h-2.3V83.57ZM59.08,94v1.08H45V94Zm-13.76-8.1V83.57H48v.36h-.43a2.13,2.13,0,0,0-1.48.56,1.82,1.82,0,0,0-.61,1.39Zm0,17h.11a1.85,1.85,0,0,0,.61,1.37,2.09,2.09,0,0,0,1.48.57H48v.36H45.32Zm13.5-17h-.1a2,2,0,0,0-.63-1.39,2.08,2.08,0,0,0-1.46-.56H56.2v-.36h2.62Zm0,17v2.3H56.2v-.36h.43a2.05,2.05,0,0,0,2.09-1.94ZM61,83.57v21.6h-2.3V83.57Zm-.11,2.31V83.57h2.63v.36h-.43a2.06,2.06,0,0,0-1.46.56A1.91,1.91,0,0,0,61,85.88Zm0,17H61a2,2,0,0,0,.63,1.37,2,2,0,0,0,1.46.57h.43v.36H60.91Z" transform="translate(-0.72)"/><path class="cls-2" d="M69.44,102.94v2.23h-2.7v-.36h.61a2,2,0,0,0,1.41-.54,1.75,1.75,0,0,0,.57-1.33ZM69.37,83l1.55,2,0,20.12H69.33V87.53A37.44,37.44,0,0,0,69,83Zm0,0,19.94,18.79.36,3.86L69.73,86.78ZM71,102.94a1.71,1.71,0,0,0,.59,1.33,2,2,0,0,0,1.39.54h.61v.36h-2.7v-2.23ZM88.09,85.8a1.89,1.89,0,0,0-.61-1.33,2,2,0,0,0-1.41-.54h-.61v-.36h2.7V85.8Zm1.58-2.23v17.5c0,.77,0,1.5.08,2.21s.13,1.51.25,2.4h-.33l-1.58-1.91V83.57Zm-.1,2.23V83.57h2.7v.36h-.62a2,2,0,0,0-1.38.54,1.73,1.73,0,0,0-.6,1.33Z" transform="translate(-0.72)"/><path class="cls-2" d="M102,83.07c.67,0,1.26,0,1.76.07s1,.1,1.32.16a6.69,6.69,0,0,1,1,.22l.74.23,0,3.57h-.43a2.86,2.86,0,0,0-1-2.33,4.82,4.82,0,0,0-3.13-.84,4.9,4.9,0,0,0-3.08,1,2.89,2.89,0,0,0-1.24,2.43,3.51,3.51,0,0,0,.13,1,3.27,3.27,0,0,0,.43,1,4.48,4.48,0,0,0,.85.93L106.56,96a4,4,0,0,1,1.22,1.74,6.4,6.4,0,0,1,.43,2.11,5,5,0,0,1-.82,2.92,6.14,6.14,0,0,1-2.33,2.1,6.7,6.7,0,0,1-3.22.78,15.42,15.42,0,0,1-2.25-.18,12,12,0,0,1-2.25-.56,5.61,5.61,0,0,1-1.73-1,6.4,6.4,0,0,1-.1-1.27,11.84,11.84,0,0,1,.12-1.64A9.9,9.9,0,0,1,96,99.52h.43a4.83,4.83,0,0,0,.47,2.77A4,4,0,0,0,98.67,104a6,6,0,0,0,2.78.56,5.66,5.66,0,0,0,3.51-1.14,3.49,3.49,0,0,0,1.27-2.82,4,4,0,0,0-.3-1.57,3.88,3.88,0,0,0-1-1.31l-7.2-5.55a4.4,4.4,0,0,1-1.37-1.91,6,6,0,0,1-.36-2,4.67,4.67,0,0,1,.79-2.66,5.69,5.69,0,0,1,2.14-1.89A6.42,6.42,0,0,1,102,83.07Zm4.75.32,0,.65h-2.56v-.65Z" transform="translate(-0.72)"/><path class="cls-2" d="M124.09,83.07a13.62,13.62,0,0,1,4.73.81,11.64,11.64,0,0,1,3.89,2.32,10.64,10.64,0,0,1,2.61,3.58,11.68,11.68,0,0,1,0,9.18,10.54,10.54,0,0,1-2.61,3.58,11.66,11.66,0,0,1-3.89,2.33,14.19,14.19,0,0,1-9.45,0,11.88,11.88,0,0,1-3.87-2.33A10.81,10.81,0,0,1,112.89,99a11.79,11.79,0,0,1,0-9.18,10.91,10.91,0,0,1,2.61-3.58,11.85,11.85,0,0,1,3.87-2.32A13.57,13.57,0,0,1,124.09,83.07Zm0,21.53a9.21,9.21,0,0,0,8.24-4.9,11.92,11.92,0,0,0,0-10.67,9.38,9.38,0,0,0-3.42-3.59,9.59,9.59,0,0,0-9.61,0A9.38,9.38,0,0,0,115.88,89a11.92,11.92,0,0,0,0,10.67,9.21,9.21,0,0,0,8.21,4.9Z" transform="translate(-0.72)"/><path class="cls-2" d="M141.8,102.94v2.23h-2.7v-.36h.61a2,2,0,0,0,1.41-.54,1.75,1.75,0,0,0,.57-1.33ZM141.73,83l1.55,2,0,20.12h-1.62V87.53a37.44,37.44,0,0,0-.32-4.5Zm0,0,19.94,18.79.36,3.86-19.94-18.9Zm1.58,19.91a1.71,1.71,0,0,0,.6,1.33,2,2,0,0,0,1.38.54h.62v.36h-2.7v-2.23ZM160.45,85.8a1.89,1.89,0,0,0-.61-1.33,2,2,0,0,0-1.41-.54h-.61v-.36h2.7V85.8ZM162,83.57v17.5c0,.77,0,1.5.08,2.21s.13,1.51.25,2.4H162l-1.58-1.91V83.57Zm-.1,2.23V83.57h2.7v.36H164a2,2,0,0,0-1.38.54,1.73,1.73,0,0,0-.6,1.33Z" transform="translate(-0.72)"/><path class="cls-2" d="M208.67,91.35a15.15,15.15,0,0,1,.25,4.41,12,12,0,0,1-1,3.89,10.22,10.22,0,0,1-2.23,3.13,9.84,9.84,0,0,1-3.34,2.08,12,12,0,0,1-4.32.73,22.22,22.22,0,0,1-4.48-.42,13.54,13.54,0,0,1-3.59-1.24,9.13,9.13,0,0,1-2.62-2,8.38,8.38,0,0,1-1.62-2.73,10.29,10.29,0,0,1-.54-3.43,8.76,8.76,0,0,1,.27-2.24,7.51,7.51,0,0,1,.78-1.91A7.2,7.2,0,0,1,187.39,90a11.37,11.37,0,0,1,1.54-1.28,10.54,10.54,0,0,1,1.8-1l.59.93a7.19,7.19,0,0,0-1.43,1.49,8.57,8.57,0,0,0-1,1.72,8.06,8.06,0,0,0-.55,1.89,12.06,12.06,0,0,0-.17,2,9.09,9.09,0,0,0,.65,3.47,7.71,7.71,0,0,0,1.89,2.71,8.77,8.77,0,0,0,3.07,1.76,12.8,12.8,0,0,0,4.18.63,8.06,8.06,0,0,0,3.8-.86,8.41,8.41,0,0,0,2.77-2.27,9.62,9.62,0,0,0,1.66-3.13,9.77,9.77,0,0,0,.46-3.46,7.91,7.91,0,0,0-.84-3.26A4.13,4.13,0,0,0,204.78,90a2.52,2.52,0,0,0-1.66-.55h-.63V89h8.36v.42h-.63a1.52,1.52,0,0,0-1.32.55A1.63,1.63,0,0,0,208.67,91.35Zm-11.6-16.17a10.31,10.31,0,0,1,2.78.38,10.89,10.89,0,0,1,2.47,1,6.69,6.69,0,0,1,1.89,1.58l-.75,4.74H203a7.3,7.3,0,0,0-.76-3.46,5.34,5.34,0,0,0-2.08-2.23,6,6,0,0,0-3.13-.78,5.22,5.22,0,0,0-4,1.68,6,6,0,0,0-1.57,4.25,7.94,7.94,0,0,0,1.72,4.91,39.33,39.33,0,0,0,5,5.17c.61.53,1.29,1.14,2,1.82s1.59,1.45,2.56,2.29,2.05,1.77,3.25,2.77c.9.73,1.81,1.5,2.75,2.31a19.14,19.14,0,0,0,2.9,2.1,7,7,0,0,0,3.09,1v.42c-.53,0-1.3,0-2.29,0a12.66,12.66,0,0,1-3.3-.59,10.58,10.58,0,0,1-3.61-2c-1.06-.87-2-1.68-2.92-2.42l-2.43-2.06c-.75-.63-1.44-1.23-2.08-1.8s-1.28-1.14-1.89-1.7c-1.63-1.52-3-2.88-4.14-4.1a14.8,14.8,0,0,1-2.6-3.74,9.91,9.91,0,0,1-.91-4.34,6.9,6.9,0,0,1,.59-2.86,6.58,6.58,0,0,1,1.7-2.27,8.08,8.08,0,0,1,2.67-1.51A10.54,10.54,0,0,1,197.07,75.18Z" transform="translate(-0.72)"/><path class="cls-2" d="M235.7,102.54a1.83,1.83,0,0,0-.07,1.23,1.49,1.49,0,0,0,.59.77,1.55,1.55,0,0,0,.85.27h.32v.36h-7.23v-.36h.32a3.34,3.34,0,0,0,1.71-.52,3.81,3.81,0,0,0,1.46-1.75Zm7.74-23.07.33,2.52-9,23.07h-2.16l9.22-21.88c.26-.6.48-1.12.66-1.55s.34-.85.47-1.26a3.45,3.45,0,0,0,.2-.9Zm5.08,15.87v1.08H237.25V95.34Zm-5.08-15.87L254.1,105H251l-8.32-22.07Zm6.7,23.07h3a3.61,3.61,0,0,0,1.44,1.75,3.44,3.44,0,0,0,1.73.52h.29v.36h-8.1v-.36h.32a1.62,1.62,0,0,0,1.22-.59A1.57,1.57,0,0,0,250.14,102.54Z" transform="translate(-0.72)"/><path class="cls-2" d="M264.57,83.07c.67,0,1.26,0,1.77.07s.94.1,1.31.16a6.4,6.4,0,0,1,1,.22l.74.23,0,3.57H269A2.89,2.89,0,0,0,268,85a5.73,5.73,0,0,0-6.21.15,2.87,2.87,0,0,0-1.24,2.43,3.93,3.93,0,0,0,.12,1,3.27,3.27,0,0,0,.43,1,4.78,4.78,0,0,0,.85.93L269.18,96a4,4,0,0,1,1.22,1.74,6.69,6.69,0,0,1,.44,2.11,5.12,5.12,0,0,1-.83,2.92,6.19,6.19,0,0,1-2.32,2.1,6.72,6.72,0,0,1-3.22.78,15.21,15.21,0,0,1-2.25-.18,11.57,11.57,0,0,1-2.25-.56,5.38,5.38,0,0,1-1.73-1,5.65,5.65,0,0,1-.11-1.27,10.53,10.53,0,0,1,.13-1.64,8.92,8.92,0,0,1,.34-1.55H259a4.83,4.83,0,0,0,.47,2.77,4,4,0,0,0,1.8,1.75,5.92,5.92,0,0,0,2.77.56,5.62,5.62,0,0,0,3.51-1.14,3.5,3.5,0,0,0,1.28-2.82,4,4,0,0,0-.31-1.57,3.64,3.64,0,0,0-1-1.31l-7.2-5.55A4.4,4.4,0,0,1,259,90.3a6,6,0,0,1-.36-2,4.68,4.68,0,0,1,.8-2.66,5.62,5.62,0,0,1,2.14-1.89A6.38,6.38,0,0,1,264.57,83.07Zm4.75.32,0,.65h-2.55v-.65Z" transform="translate(-0.72)"/><path class="cls-2" d="M281.2,83.07c.68,0,1.26,0,1.77.07s.94.1,1.31.16a6.4,6.4,0,0,1,1,.22l.74.23,0,3.57h-.43a2.89,2.89,0,0,0-1-2.33,5.73,5.73,0,0,0-6.21.15,2.87,2.87,0,0,0-1.24,2.43,3.93,3.93,0,0,0,.12,1,3.55,3.55,0,0,0,.43,1,4.78,4.78,0,0,0,.85.93L285.81,96A4.13,4.13,0,0,1,287,97.77a7,7,0,0,1,.43,2.11,5,5,0,0,1-.83,2.92,6.19,6.19,0,0,1-2.32,2.1,6.72,6.72,0,0,1-3.22.78,15.21,15.21,0,0,1-2.25-.18,11.57,11.57,0,0,1-2.25-.56,5.38,5.38,0,0,1-1.73-1,6.3,6.3,0,0,1-.11-1.27,10.53,10.53,0,0,1,.13-1.64,8.92,8.92,0,0,1,.34-1.55h.43a4.83,4.83,0,0,0,.47,2.77,4.06,4.06,0,0,0,1.8,1.75,5.92,5.92,0,0,0,2.77.56,5.62,5.62,0,0,0,3.51-1.14,3.5,3.5,0,0,0,1.28-2.82,3.79,3.79,0,0,0-.31-1.57,3.64,3.64,0,0,0-1-1.31L277,92.21a4.4,4.4,0,0,1-1.37-1.91,6,6,0,0,1-.35-2,4.67,4.67,0,0,1,.79-2.66,5.62,5.62,0,0,1,2.14-1.89A6.38,6.38,0,0,1,281.2,83.07Zm4.76.32,0,.65h-2.55v-.65Z" transform="translate(-0.72)"/><path class="cls-2" d="M303.34,83.07a13.72,13.72,0,0,1,4.74.81A11.84,11.84,0,0,1,312,86.2a10.91,10.91,0,0,1,2.61,3.58,11.79,11.79,0,0,1,0,9.18,10.81,10.81,0,0,1-2.61,3.58,11.86,11.86,0,0,1-3.89,2.33,13.72,13.72,0,0,1-4.74.81,13.47,13.47,0,0,1-4.71-.81,11.67,11.67,0,0,1-3.87-2.33A10.54,10.54,0,0,1,292.15,99a11.68,11.68,0,0,1,0-9.18,10.64,10.64,0,0,1,2.61-3.58,11.65,11.65,0,0,1,3.87-2.32A13.47,13.47,0,0,1,303.34,83.07Zm0,21.53a9.21,9.21,0,0,0,8.25-4.9,11.92,11.92,0,0,0,0-10.67,9.38,9.38,0,0,0-3.42-3.59,9.24,9.24,0,0,0-4.83-1.29,9.14,9.14,0,0,0-4.78,1.29A9.38,9.38,0,0,0,295.14,89a11.92,11.92,0,0,0,0,10.67,9.27,9.27,0,0,0,3.42,3.6A9.15,9.15,0,0,0,303.34,104.6Z" transform="translate(-0.72)"/><path class="cls-2" d="M341.25,96.1l-.39,4.93a9.06,9.06,0,0,1-2.45,2.49,12,12,0,0,1-3.42,1.6,14.37,14.37,0,0,1-4,.56,14.15,14.15,0,0,1-6.32-1.41,9.68,9.68,0,0,1-4.12-3.89,13.35,13.35,0,0,1,0-12.06,9.66,9.66,0,0,1,4.12-3.88A13.63,13.63,0,0,1,331,83.07a18.5,18.5,0,0,1,4.5.57,13.87,13.87,0,0,1,3.92,1.62l.79,5.08h-.32a7.16,7.16,0,0,0-3.19-4.75,10.92,10.92,0,0,0-5.74-1.44A9.33,9.33,0,0,0,326,85.39a8.33,8.33,0,0,0-3.21,3.53,12.21,12.21,0,0,0-1.13,5.45,12,12,0,0,0,1.13,5.38,8.29,8.29,0,0,0,3.22,3.53,9.7,9.7,0,0,0,4.94,1.28,12.8,12.8,0,0,0,4.87-.88,8,8,0,0,0,3.55-2.76,8.9,8.9,0,0,0,1.55-4.82Z" transform="translate(-0.72)"/><path class="cls-2" d="M347.7,85.88h-.11a1.82,1.82,0,0,0-.74-1.39,2.68,2.68,0,0,0-1.71-.56h-.5v-.36h3.06Zm0,17v2.3h-3.06v-.36h.5a2.63,2.63,0,0,0,1.71-.57,1.86,1.86,0,0,0,.74-1.37Zm2.16-19.3v21.6h-2.27V83.57Zm-.11,2.31V83.57h3.06l0,.36h-.47a2.68,2.68,0,0,0-1.71.56,1.81,1.81,0,0,0-.73,1.39Zm0,17h.11a1.85,1.85,0,0,0,.73,1.37,2.63,2.63,0,0,0,1.71.57h.47l0,.36h-3.06Z" transform="translate(-0.72)"/><path class="cls-2" d="M359.9,102.54a1.62,1.62,0,0,0,.11,1.68,1.49,1.49,0,0,0,1.15.59h.29v.36h-6.88v-.36h.29a2.81,2.81,0,0,0,1.55-.52,4.16,4.16,0,0,0,1.37-1.75Zm7-19.47.25,2.48-8.25,19.51h-2.26l8.53-18.28.67-1.5c.18-.42.34-.83.48-1.24a3.94,3.94,0,0,0,.25-1Zm4.25,13.71v1.08h-9.54V96.78Zm-4.25-13.71,9.9,21.89H373.9l-7.66-18.69Zm6.08,19.47h2.74a3.88,3.88,0,0,0,1.33,1.75,2.75,2.75,0,0,0,1.51.52h.29v.36h-7.38v-.36h.29a1.45,1.45,0,0,0,1.11-.59A1.62,1.62,0,0,0,372.93,102.54Z" transform="translate(-0.72)"/><path class="cls-2" d="M376.64,83a9.83,9.83,0,0,0,1,.25,13.3,13.3,0,0,0,1.49.24,14.53,14.53,0,0,0,1.55.09l-4,.36Zm19.76.58v1.08H376.64V83.54Zm-17.56,1v.08a1.76,1.76,0,0,0-1.8,1.83V87h-.4V84.54Zm6.58,18.33v2.3H382.8v-.36h.43a2.07,2.07,0,0,0,1.47-.57,1.94,1.94,0,0,0,.65-1.37Zm2.27-19.19v21.49h-2.34V83.68Zm-.11,19.19h.11a2,2,0,0,0,.65,1.37,2.09,2.09,0,0,0,1.48.57h.39v.36h-2.63ZM396.4,83v.94l-4-.36a13.89,13.89,0,0,0,1.53-.09,14.74,14.74,0,0,0,1.5-.24A8.86,8.86,0,0,0,396.4,83Zm0,1.58V87H396v-.58a1.8,1.8,0,0,0-.49-1.28,1.82,1.82,0,0,0-1.31-.55v-.08Z" transform="translate(-0.72)"/><path class="cls-2" d="M401.55,85.84h-.07a1.92,1.92,0,0,0-.61-1.37,2.09,2.09,0,0,0-1.48-.54h-.5v-.36H402Zm0,17,.47,2.3h-3.13v-.36h.5a2,2,0,0,0,2.09-1.94Zm2.23-19.3v21.6h-2.3V83.57Zm9.65,0v1.12h-9.72V83.57Zm-1.65,10.26v1.08h-8.07V93.83Zm1.69,10.23-.07,1.11h-9.69v-1.11Zm2-4-2,5.15H408l1.23-1.11a6.72,6.72,0,0,0,2.89-.53,4.54,4.54,0,0,0,1.79-1.44,10.34,10.34,0,0,0,1.18-2.07Zm-2.05-17v.93l-4.1-.36a14.39,14.39,0,0,0,2.37-.2A9.84,9.84,0,0,0,413.43,83Zm-1.65,8.85V93.9H409.9v-.07a1.34,1.34,0,0,0,1.12-.45,1.64,1.64,0,0,0,.36-1.06v-.47Zm0,3v2h-.4v-.47a1.66,1.66,0,0,0-.36-1.06,1.34,1.34,0,0,0-1.12-.45v-.07Zm1.65-10.26v2.48H413v-.54a1.88,1.88,0,0,0-.49-1.29,1.67,1.67,0,0,0-1.31-.54v-.11Z" transform="translate(-0.72)"/><path class="cls-2" d="M425,83.07c.67,0,1.26,0,1.76.07s.94.1,1.31.16a6.55,6.55,0,0,1,1,.22l.73.23,0,3.57h-.43a2.89,2.89,0,0,0-1-2.33,5.73,5.73,0,0,0-6.21.15,2.89,2.89,0,0,0-1.24,2.43,3.51,3.51,0,0,0,.13,1,3,3,0,0,0,.43,1,4.41,4.41,0,0,0,.84.93L429.6,96a4.11,4.11,0,0,1,1.22,1.74,6.67,6.67,0,0,1,.43,2.11,5,5,0,0,1-.83,2.92,6.12,6.12,0,0,1-2.32,2.1,6.72,6.72,0,0,1-3.22.78,15.21,15.21,0,0,1-2.25-.18,11.57,11.57,0,0,1-2.25-.56,5.49,5.49,0,0,1-1.73-1,6.3,6.3,0,0,1-.11-1.27,10.53,10.53,0,0,1,.13-1.64,10,10,0,0,1,.34-1.55h.43a4.92,4.92,0,0,0,.47,2.77,4.06,4.06,0,0,0,1.8,1.75,5.94,5.94,0,0,0,2.77.56,5.62,5.62,0,0,0,3.51-1.14,3.5,3.5,0,0,0,1.28-2.82,4,4,0,0,0-.3-1.57,3.88,3.88,0,0,0-1-1.31l-7.21-5.55a4.38,4.38,0,0,1-1.36-1.91,6,6,0,0,1-.36-2,4.67,4.67,0,0,1,.79-2.66A5.69,5.69,0,0,1,422,83.77,6.39,6.39,0,0,1,425,83.07Zm4.75.32,0,.65h-2.55v-.65Z" transform="translate(-0.72)"/><text class="cls-3" transform="translate(41.7 141.07)"><tspan xml:space="preserve">-  CE</tspan><tspan class="cls-4" x="42.41" y="0">R</tspan><tspan class="cls-5" x="55.46" y="0">TIFIED </tspan><tspan class="cls-6" x="121.93" y="0">P</tspan><tspan x="134.87" y="0">UBLIC </tspan><tspan class="cls-4" x="197.89" y="0">A</tspan><tspan class="cls-7" x="211.5" y="0">CC</tspan><tspan x="237.34" y="0">OUN</tspan><tspan class="cls-8" x="281.26" y="0">T</tspan><tspan x="291.76" y="0" xml:space="preserve">ANT  -</tspan></text></g></g></svg>